<?xml version="1.0" encoding="iso-8859-1"?>
<!-- Generator: Adobe Illustrator 19.0.0, SVG Export Plug-In . SVG Version: 6.00 Build 0)  -->
<svg version="1.1" id="Capa_1" xmlns="http://www.w3.org/2000/svg" xmlns:xlink="http://www.w3.org/1999/xlink" x="0px" y="0px"
	 viewBox="0 0 511.999 511.999" style="enable-background:new 0 0 511.999 511.999;" xml:space="preserve">
<g>
	<path style="fill:#F9D366;" d="M463.972,147.686c-4.275,0-7.74-3.466-7.74-7.74v-20.123c0-4.275,3.466-7.74,7.74-7.74
		s7.74,3.466,7.74,7.74v20.123C471.712,144.221,468.246,147.686,463.972,147.686z"/>
	<path style="fill:#F9D366;" d="M463.972,201.866c-4.275,0-7.74-3.466-7.74-7.74v-20.124c0-4.275,3.466-7.74,7.74-7.74
		s7.74,3.466,7.74,7.74v20.123C471.712,198.4,468.246,201.866,463.972,201.866z"/>
	<path style="fill:#F9D366;" d="M501.123,164.715h-20.124c-4.275,0-7.74-3.466-7.74-7.74c0-4.275,3.466-7.74,7.74-7.74h20.124
		c4.275,0,7.74,3.466,7.74,7.74C508.863,161.249,505.397,164.715,501.123,164.715z"/>
	<path style="fill:#F9D366;" d="M446.943,164.715H426.82c-4.275,0-7.74-3.466-7.74-7.74c0-4.275,3.466-7.74,7.74-7.74h20.124
		c4.275,0,7.74,3.466,7.74,7.74C454.683,161.249,451.218,164.715,446.943,164.715z"/>
</g>
<g>
	<path style="fill:#DD8833;" d="M48.598,35.604c-4.275,0-7.74-3.466-7.74-7.74V7.74c0-4.275,3.466-7.74,7.74-7.74
		s7.74,3.466,7.74,7.74v20.123C56.338,32.138,52.873,35.604,48.598,35.604z"/>
	<path style="fill:#DD8833;" d="M48.598,89.783c-4.275,0-7.74-3.466-7.74-7.74V61.92c0-4.275,3.466-7.74,7.74-7.74
		s7.74,3.466,7.74,7.74v20.123C56.338,86.318,52.873,89.783,48.598,89.783z"/>
	<path style="fill:#DD8833;" d="M85.75,52.631H65.627c-4.275,0-7.74-3.466-7.74-7.74s3.466-7.74,7.74-7.74H85.75
		c4.275,0,7.74,3.466,7.74,7.74S90.025,52.631,85.75,52.631z"/>
	<path style="fill:#DD8833;" d="M31.571,52.631H11.447c-4.275,0-7.74-3.466-7.74-7.74s3.466-7.74,7.74-7.74h20.123
		c4.275,0,7.74,3.466,7.74,7.74S35.845,52.631,31.571,52.631z"/>
</g>
<path style="fill:#4E4F75;" d="M360.748,268.611v201.298c0,23.25-60.358,42.09-134.814,42.09c-21.383,0-41.608-1.557-59.566-4.325
	c-44.586-6.857-75.248-21.191-75.248-37.765V286.202l75.248-0.41L360.748,268.611z"/>
<g>
	<path style="fill:#32314C;" d="M166.368,285.792v221.882c-44.586-6.857-75.248-21.191-75.248-37.765V255.195L166.368,285.792z"/>
	<path style="fill:#32314C;" d="M360.748,284.727v28.23c-37.446,8.879-84.154,14.151-134.814,14.151s-97.368-5.273-134.814-14.151
		v-26.755l75.248-0.41L360.748,284.727z"/>
</g>
<ellipse style="fill:#4E4F75;" cx="225.931" cy="228.759" rx="223.114" ry="69.662"/>
<path style="fill:#32314C;" d="M225.931,247.426c-44.359,0-87.867-4.491-122.51-12.647c-0.084-0.02-0.167-0.039-0.251-0.059
	c-6.272-1.481-6.272-10.435,0-11.917c0.084-0.02,0.167-0.039,0.251-0.059c34.644-8.156,78.151-12.647,122.51-12.647
	s87.866,4.491,122.51,12.647c0.084,0.02,0.167,0.039,0.251,0.059c6.272,1.481,6.272,10.435,0,11.917
	c-0.084,0.02-0.167,0.039-0.251,0.059C313.797,242.935,270.289,247.426,225.931,247.426z"/>
<rect x="238.276" y="108.758" transform="matrix(-0.8203 0.5719 -0.5719 -0.8203 766.8428 7.5458)" style="fill:#F777CE;" width="287.92" height="30.959"/>
<rect x="233.845" y="110.141" transform="matrix(-0.8203 0.5719 -0.5719 -0.8203 755.1404 -1.4913)" style="fill:#ED4596;" width="287.92" height="15.479"/>
<path style="fill:#DD8833;" d="M335.092,80.753l16.299-3.305c7.695-1.56,7.695-12.557,0-14.117l-16.299-3.305
	c-16.061-3.256-28.614-15.809-31.87-31.87l-3.305-16.299c-1.56-7.695-12.557-7.695-14.117,0l-3.305,16.299
	c-3.256,16.061-15.809,28.614-31.87,31.87l-16.299,3.305c-7.695,1.56-7.695,12.557,0,14.117l16.299,3.305
	c16.061,3.256,28.614,15.809,31.87,31.87l3.305,16.299c1.56,7.695,12.557,7.695,14.117,0l3.305-16.299
	C306.478,96.562,319.031,84.009,335.092,80.753z"/>
<path style="fill:#F9D366;" d="M197.312,133.871l19.736-4.001c9.318-1.89,9.318-15.206,0-17.094l-19.736-4.001
	c-19.45-3.943-34.65-19.144-38.594-38.594l-4.001-19.736c-1.89-9.318-15.206-9.318-17.094,0l-4.001,19.736
	c-3.943,19.45-19.144,34.65-38.594,38.594l-19.736,4.001c-9.318,1.89-9.318,15.206,0,17.094l19.736,4.001
	c19.45,3.943,34.65,19.144,38.594,38.594l4.001,19.736c1.89,9.318,15.206,9.318,17.094,0l4.001-19.736
	C162.662,153.016,177.863,137.815,197.312,133.871z"/>
<g>
</g>
<g>
</g>
<g>
</g>
<g>
</g>
<g>
</g>
<g>
</g>
<g>
</g>
<g>
</g>
<g>
</g>
<g>
</g>
<g>
</g>
<g>
</g>
<g>
</g>
<g>
</g>
<g>
</g>
</svg>
