<svg id="Capa_1" enable-background="new 0 0 512 512" height="512" viewBox="0 0 512 512" width="512" xmlns="http://www.w3.org/2000/svg"><g><path d="m352.175 463.161c-52.958 0-82.315-28.31-82.789-79.759-1.729-1.009-6.488-2.417-13.386-2.417-6.897 0-11.657 1.408-13.386 2.417-.473 51.449-29.832 79.759-82.789 79.759-4.142 0-7.5-3.358-7.5-7.5s3.358-7.5 7.5-7.5c44.985 0 67.795-22.215 67.795-66.027 0-14.269-27.832-29.669-72.795-29.669-23.452 0-62.795 3.205-62.795 24.669 0 24.833 7.319 56.698 42.188 67.477 3.958 1.224 6.174 5.423 4.951 9.38-1.224 3.957-5.426 6.173-9.38 4.951-31.968-9.882-50.441-36.134-52.555-74.308h-9.984c-4.142 0-7.5-3.358-7.5-7.5s3.358-7.5 7.5-7.5h10.619c3.761-16.057 21.385-32.169 76.956-32.169 41.476 0 73.681 12.489 84.162 31.129 4.53-1.693 10.281-2.608 17.013-2.608s12.483.915 17.013 2.608c10.481-18.64 42.686-31.129 84.162-31.129 55.57 0 73.194 16.112 76.955 32.169h10.62c4.143 0 7.5 3.358 7.5 7.5s-3.357 7.5-7.5 7.5h-9.987c-2.768 49.341-33.197 78.527-82.588 78.527zm5-110.696c-44.964 0-72.795 15.401-72.795 29.669 0 43.813 22.81 66.027 67.795 66.027 43.718 0 67.795-25.225 67.795-71.027 0-21.464-39.343-24.669-62.795-24.669zm-101.175-27.006c-60.85 0-124.781-5.209-175.4-14.291-22.882-4.105-42.078-8.85-55.512-13.72-17.351-6.29-25.088-12.703-25.088-20.795 0-11.156 13.379-16.871 23.442-20.199 9.468-3.131 22.137-5.979 37.656-8.463 4.085-.652 7.936 2.129 8.591 6.22.655 4.09-2.13 7.937-6.22 8.591-34.483 5.521-44.78 11.368-47.626 13.649 4.864 3.908 24.037 12.693 74.377 21.165 49.219 8.282 108.094 12.843 165.779 12.843s116.561-4.561 165.779-12.843c50.437-8.487 69.586-17.291 74.405-21.187-2.51-2.074-11.06-7.007-38.703-12.091-16.214-2.982-31.837-4.668-36.377-5.127-10.069 2.636-71.313 17.583-165.104 17.583-100.673 0-163.847-17.221-166.487-17.954-3.587-.996-5.901-4.473-5.434-8.167.062-.49 6.307-49.607 15.484-98.091 5.42-28.633 10.801-51.507 15.992-67.984 8.001-25.398 15.305-35.758 25.207-35.758 35.935 0 70.39 10.409 93.189 17.297 9.639 2.912 18.744 5.663 22.048 5.663 3.305 0 12.41-2.751 22.05-5.663 9.881-2.985 22.177-6.7 35.765-9.896 4.033-.946 8.07 1.55 9.019 5.583.948 4.032-1.552 8.07-5.584 9.018-13.132 3.089-25.181 6.729-34.861 9.653-12.565 3.796-20.867 6.304-26.388 6.304s-13.821-2.508-26.386-6.304c-21.806-6.588-54.683-16.521-88.165-16.655-2.143 1.657-12.788 13.788-28.143 96.853-6.621 35.817-11.561 71.01-13.476 85.252 18.336 4.272 75.478 15.849 156.169 15.849 80.692 0 137.831-11.576 156.169-15.849-1.12-8.332-3.276-23.835-6.196-42.432-18.724 3.84-72.616 13.28-149.973 13.28-56.76 0-101.227-5.146-128.536-9.462-4.091-.647-6.884-4.488-6.237-8.579.647-4.092 4.491-6.88 8.579-6.237 26.778 4.233 70.408 9.278 126.194 9.278 76.184 0 130.163-9.57 147.58-13.125-1.497-9.048-3.138-18.519-4.896-28.033-15.351-83.015-25.99-95.14-28.133-96.795-8.632.035-17.847.732-27.401 2.073-4.085.577-7.894-2.282-8.47-6.385-.575-4.102 2.283-7.894 6.386-8.47 10.496-1.473 20.647-2.22 30.172-2.22 9.902 0 17.206 10.36 25.207 35.758 5.191 16.478 10.572 39.351 15.992 67.984 7.313 38.636 12.765 77.673 14.709 92.187 7.816.874 22.208 2.68 36.781 5.524 33.698 6.578 48.075 14.462 48.075 26.362 0 8.092-7.737 14.505-25.087 20.795-13.436 4.87-32.631 9.615-55.513 13.72-50.619 9.082-114.549 14.291-175.4 14.291z"/></g></svg>