<?xml version="1.0" encoding="iso-8859-1"?>
<!-- Generator: Adobe Illustrator 19.0.0, SVG Export Plug-In . SVG Version: 6.00 Build 0)  -->
<svg version="1.1" id="Capa_1" xmlns="http://www.w3.org/2000/svg" xmlns:xlink="http://www.w3.org/1999/xlink" x="0px" y="0px"
	 viewBox="0 0 434.176 434.176" style="enable-background:new 0 0 434.176 434.176;" xml:space="preserve">
<g>
	<g>
		<g>
			<path d="M262.656,209.92c27.436-25.308,29.16-68.065,3.853-95.5c-25.308-27.436-68.065-29.16-95.501-3.853
				c-27.436,25.308-29.16,68.065-3.852,95.501c1.232,1.335,2.517,2.621,3.852,3.852c-27.061,16.108-43.608,45.307-43.52,76.8v38.912
				c0,8.483,6.877,15.36,15.36,15.36h148.48c8.483,0,15.36-6.877,15.36-15.36V286.72C306.669,255.123,289.914,225.9,262.656,209.92z
				"/>
			<path d="M217.088,0C97.194,0,0,97.194,0,217.088s97.194,217.088,217.088,217.088s217.088-97.194,217.088-217.088
				C433.895,97.31,336.866,0.281,217.088,0z M232.448,402.944v-54.272h-30.72v54.272c-90.798-7.666-162.83-79.698-170.496-170.496
				h54.272v-30.72H31.232c7.666-90.798,79.698-162.83,170.496-170.496v54.272h30.72V31.232
				c90.798,7.666,162.83,79.698,170.496,170.496h-54.272v30.72h54.272C395.278,323.246,323.246,395.278,232.448,402.944z"/>
		</g>
	</g>
</g>
<g>
</g>
<g>
</g>
<g>
</g>
<g>
</g>
<g>
</g>
<g>
</g>
<g>
</g>
<g>
</g>
<g>
</g>
<g>
</g>
<g>
</g>
<g>
</g>
<g>
</g>
<g>
</g>
<g>
</g>
</svg>
