<svg id="Capa_1" enable-background="new 0 0 512 512" height="512" viewBox="0 0 512 512" width="512" xmlns="http://www.w3.org/2000/svg"><g><path d="m435.872 271h32.128c8.284 0 15-6.716 15-15s-6.716-15-15-15h-32.128c-7.241-87.588-77.284-157.631-164.872-164.872v-30.128c0-8.284-6.716-15-15-15s-15 6.716-15 15v30.128c-87.588 7.241-157.631 77.284-164.872 164.872h-30.128c-8.284 0-15 6.716-15 15s6.716 15 15 15h30.128c7.24 87.582 77.274 157.621 164.852 164.87l.064 32.16c.017 8.274 6.729 14.97 15 14.97h.03c8.284-.017 14.987-6.746 14.97-15.03l-.064-32.097c87.598-7.232 157.651-77.279 164.892-164.873zm-120.872 123.446c-37.587 16.079-80.412 16.079-118 0v-53.446c0-32.533 26.467-59 59-59s59 26.467 59 59zm30-17.162v-36.284c0-49.075-39.925-89-89-89s-89 39.925-89 89v36.284c-37.267-27.421-61.5-71.573-61.5-121.284 0-82.986 67.514-150.5 150.5-150.5s150.5 67.514 150.5 150.5c0 49.711-24.233 93.863-61.5 121.284z"/><path d="m257 146c-29.224 0-53 23.776-53 53s23.776 53 53 53 53-23.776 53-53-23.776-53-53-53zm0 76c-12.682 0-23-10.318-23-23s10.318-23 23-23 23 10.318 23 23-10.318 23-23 23z"/><path d="m497 0h-90c-8.284 0-15 6.716-15 15s6.716 15 15 15h75v76c0 8.284 6.716 15 15 15s15-6.716 15-15v-91c0-8.284-6.716-15-15-15z"/><path d="m497 391c-8.284 0-15 6.716-15 15v76h-75c-8.284 0-15 6.716-15 15s6.716 15 15 15h90c8.284 0 15-6.716 15-15v-91c0-8.284-6.716-15-15-15z"/><path d="m105 482h-75v-76c0-8.284-6.716-15-15-15s-15 6.716-15 15v91c0 8.284 6.716 15 15 15h90c8.284 0 15-6.716 15-15s-6.716-15-15-15z"/><path d="m15 121c8.284 0 15-6.716 15-15v-76h75c8.284 0 15-6.716 15-15s-6.716-15-15-15h-90c-8.284 0-15 6.716-15 15v91c0 8.284 6.716 15 15 15z"/></g></svg>